<?xml version="1.0" ?><svg viewBox="0 0 24 24" xmlns="http://www.w3.org/2000/svg"><title/><g data-name="Google Maps" id="Google_Maps"><g data-name="&lt;Group&gt;" id="_Group_"><line data-name="&lt;Path&gt;" id="_Path_" style="fill:none;stroke:#303c42;stroke-linecap:round;stroke-linejoin:round" x1="3" x2="14.75" y1="23.5" y2="11.75"/><line data-name="&lt;Path&gt;" id="_Path_2" style="fill:none;stroke:#303c42;stroke-linecap:round;stroke-linejoin:round" x1="13" x2="0.5" y1="8.5" y2="21"/><path d="M18,.5a5.48,5.48,0,0,0-5.46,6.13c.39,4,4.43,6.8,5.46,11.87,1-5.07,5.07-7.83,5.46-11.87A5.48,5.48,0,0,0,18,.5Zm0,8A2.5,2.5,0,1,1,20.5,6,2.5,2.5,0,0,1,18,8.5Z" data-name="&lt;Compound Path&gt;" id="_Compound_Path_" style="fill:none;stroke:#303c42;stroke-linecap:round;stroke-linejoin:round"/><line data-name="&lt;Path&gt;" id="_Path_3" style="fill:none;stroke:#303c42;stroke-linecap:round;stroke-linejoin:round" x1="21.5" x2="18.2" y1="21" y2="17.7"/><line data-name="&lt;Path&gt;" id="_Path_4" style="fill:none;stroke:#303c42;stroke-linecap:round;stroke-linejoin:round" x1="11" x2="19" y1="15.5" y2="23.5"/><line data-name="&lt;Path&gt;" id="_Path_5" style="fill:none;stroke:#303c42;stroke-linecap:round;stroke-linejoin:round" x1="17.63" x2="13.5" y1="17.13" y2="13"/><path d="M13.76,2.5H2A1.5,1.5,0,0,0,.5,4V22A1.5,1.5,0,0,0,2,23.5H20A1.5,1.5,0,0,0,21.5,22V11.35" data-name="&lt;Path&gt;" id="_Path_6" style="fill:none;stroke:#303c42;stroke-linecap:round;stroke-linejoin:round"/><path d="M7,5.5a2.5,2.5,0,1,0,1,2H6" data-name="&lt;Path&gt;" id="_Path_7" style="fill:none;stroke:#303c42;stroke-linecap:round;stroke-linejoin:round"/></g></g></svg>